<?xml version="1.0" encoding="utf-8"?>
<!-- Generator: Adobe Illustrator 16.0.0, SVG Export Plug-In . SVG Version: 6.00 Build 0)  -->
<!DOCTYPE svg PUBLIC "-//W3C//DTD SVG 1.1//EN" "http://www.w3.org/Graphics/SVG/1.1/DTD/svg11.dtd">
<svg version="1.1"
	 id="svg2876" xmlns:inkscape="http://www.inkscape.org/namespaces/inkscape" xmlns:sodipodi="http://sodipodi.sourceforge.net/DTD/sodipodi-0.dtd" xmlns:dc="http://purl.org/dc/elements/1.1/" xmlns:svg="http://www.w3.org/2000/svg" xmlns:cc="http://creativecommons.org/ns#" xmlns:rdf="http://www.w3.org/1999/02/22-rdf-syntax-ns#" inkscape:version="0.48.2 r9819" sodipodi:docname="caliper.svg"
	 xmlns="http://www.w3.org/2000/svg" xmlns:xlink="http://www.w3.org/1999/xlink" x="0px" y="0px" width="100px" height="100px"
	 viewBox="0 0 100 100" enable-background="new 0 0 100 100" xml:space="preserve">
<sodipodi:namedview  inkscape:cy="46.023245" borderopacity="1" gridtolerance="10" showgrid="false" inkscape:cx="61.286872" pagecolor="#ffffff" guidetolerance="10" objecttolerance="10" id="namedview2888" bordercolor="#666666" inkscape:zoom="2.6641777" inkscape:window-x="-8" inkscape:current-layer="g3015" inkscape:pageshadow="2" inkscape:window-height="738" inkscape:pageopacity="0" inkscape:window-y="-8" inkscape:window-maximized="1" inkscape:window-width="1280">
	</sodipodi:namedview>
<defs>
	
	
		<inkscape:perspective  inkscape:vp_y="0 : 1000 : 0" inkscape:vp_z="88.58268 : 44.29134 : 1" sodipodi:type="inkscape:persp3d" inkscape:vp_x="0 : 44.29134 : 1" id="perspective2892" inkscape:persp3d-origin="44.29134 : 29.52756 : 1">
		</inkscape:perspective>
	
		<inkscape:perspective  inkscape:vp_y="0 : 1000 : 0" inkscape:vp_z="90 : 50 : 1" sodipodi:type="inkscape:persp3d" inkscape:vp_x="0 : 50 : 1" id="perspective3682" inkscape:persp3d-origin="45 : 33.333333 : 1">
		</inkscape:perspective>
	
		<inkscape:perspective  inkscape:vp_y="0 : 1000 : 0" inkscape:vp_z="88.58268 : 44.29134 : 1" sodipodi:type="inkscape:persp3d" inkscape:vp_x="0 : 44.29134 : 1" id="perspective3743" inkscape:persp3d-origin="44.29134 : 29.52756 : 1">
		</inkscape:perspective>
	
		<inkscape:perspective  inkscape:vp_y="0 : 1000 : 0" inkscape:vp_z="88.58268 : 44.29134 : 1" sodipodi:type="inkscape:persp3d" inkscape:vp_x="0 : 44.29134 : 1" id="perspective3769" inkscape:persp3d-origin="44.29134 : 29.52756 : 1">
		</inkscape:perspective>
</defs>
<path id="path3388" fill="#FFFFFF" d="M72.887,69.203C77.398,63.826,79.874,57.02,79.874,50c0-16.497-13.377-29.875-29.874-29.875
	S20.125,33.503,20.125,50c0,7.02,2.477,13.826,6.988,19.203l1.401,1.67l-5.893,4.945l1.649,1.964l5.893-4.946l-1.648-1.963
	l-3.34,2.802l-1.401-1.67c-4.381-5.221-7.086-11.614-7.811-18.339l-3.35,0.232l-0.179-2.558l3.35-0.233
	c-0.012-0.368-0.018-0.738-0.018-1.107c0-8.776,3.306-16.78,8.738-22.838l-2.419-2.335l1.781-1.845l2.419,2.336
	c5.866-5.636,13.734-9.204,22.432-9.524v-3.36h2.562v3.36c8.699,0.321,16.568,3.888,22.434,9.524l2.42-2.336l1.78,1.844
	l-2.418,2.336C80.93,33.22,84.234,41.224,84.234,50c0,0.37-0.008,0.739-0.019,1.107l3.349,0.232l-0.178,2.559l-3.352-0.232
	c-0.725,6.725-3.43,13.118-7.812,18.339l-1.399,1.67l2.554,2.144l-1.646,1.965l-5.895-4.944l1.648-1.965L72.887,69.203
	L72.887,69.203z"/>
<path id="path3386" fill="#FFFFFF" d="M40.081,55.958l3.549,3.701l4.452-4.913c0.694,0.281,1.46,0.413,2.257,0.359
	c2.821-0.186,4.956-2.625,4.769-5.444c-0.049-0.735-0.252-1.424-0.573-2.037l13.606-15.017L52.562,45.571
	c-0.85-0.493-1.851-0.747-2.901-0.677c-2.82,0.187-4.956,2.625-4.768,5.445c0.032,0.483,0.13,0.946,0.284,1.378L40.081,55.958
	L40.081,55.958z"/>
<path id="path3384" fill="#FFFFFF" d="M50,0C22.388,0,0,22.388,0,50c0,27.611,22.388,50,50,50c27.611,0,50-22.389,50-50
	C100,22.388,77.611,0,50,0z M50,7.681c23.363,0,42.318,18.955,42.318,42.319S73.363,92.318,50,92.318
	C26.636,92.318,7.681,73.364,7.681,50S26.636,7.681,50,7.681z"/>
</svg>
