<?xml version="1.0" encoding="utf-8"?>
<!-- Generator: Adobe Illustrator 16.0.0, SVG Export Plug-In . SVG Version: 6.00 Build 0)  -->
<!DOCTYPE svg PUBLIC "-//W3C//DTD SVG 1.1//EN" "http://www.w3.org/Graphics/SVG/1.1/DTD/svg11.dtd">
<svg version="1.1" id="Layer_1" xmlns="http://www.w3.org/2000/svg" xmlns:xlink="http://www.w3.org/1999/xlink" x="0px" y="0px"
	 width="100px" height="99.986px" viewBox="0 0 100 99.986" enable-background="new 0 0 100 99.986" xml:space="preserve">
<g>
	<path stroke="#000000" stroke-miterlimit="10" d="M72.143,15.156v1.804l0.012,10.748h9.74l0.997-2.664
		C79.936,21.138,76.291,17.787,72.143,15.156z"/>
	<polygon stroke="#000000" stroke-miterlimit="10" points="28.463,50.195 28.463,69.219 37.962,50.195 	"/>
	<polygon stroke="#000000" stroke-miterlimit="10" points="71.628,55.124 71.628,50.196 64.824,50.196 70.593,57.885 	"/>
	<path stroke="#000000" stroke-miterlimit="10" d="M50.307,71.629l21.333-0.013v-4.479c-0.996,0.032-1.973-0.346-2.584-1.146
		l-11.85-15.796h-6.9V71.629z"/>
	<path stroke="#000000" stroke-miterlimit="10" d="M50.293,8.823v18.885h10.664h10.671l-0.007-10.747l-0.003-2.141
		c-6.205-3.803-13.501-5.998-21.312-5.998C50.302,8.822,50.297,8.823,50.293,8.823z"/>
	<path stroke="#000000" stroke-miterlimit="10" d="M71.628,28.236H60.957H50.293v3.438c0.534,0.189,1.009,0.494,1.367,0.971
		l12.761,17.024h7.207V28.236z"/>
	<path stroke="#000000" stroke-miterlimit="10" d="M71.641,72.142l-21.334,0.013l0.013,10.711l0.004,7.647
		c7.813-0.004,15.112-2.204,21.317-6.013V72.142z"/>
	<polygon stroke="#000000" stroke-miterlimit="10" points="72.154,49.668 72.154,49.669 73.678,49.669 81.699,28.236 72.154,28.236 
			"/>
	<path stroke="#000000" stroke-miterlimit="10" d="M86.94,31.601l-6.757,18.054h10.969C91.15,43.172,89.631,37.045,86.94,31.601z"/>
	<path stroke="#000000" stroke-miterlimit="10" d="M91.14,50.182H79.98L74.35,65.227c-0.371,0.957-1.199,1.621-2.182,1.843v4.545
		l12.584-0.008C88.712,65.404,91.042,58.064,91.14,50.182z"/>
	<polygon stroke="#000000" stroke-miterlimit="10" points="72.154,53.712 73.477,50.195 72.154,50.195 	"/>
	<polygon stroke="#000000" stroke-miterlimit="10" points="49.772,40.287 49.733,40.248 45.032,49.668 49.778,49.668 	"/>
	<path stroke="#000000" stroke-miterlimit="10" d="M38.223,49.668l8.269-16.557c0.474-0.944,1.406-1.582,2.447-1.673
		c0.3-0.019,0.56,0.093,0.827,0.138v-3.341l-21.309,0.014v10.71l0.006,10.709H38.223z"/>
	<path stroke="#000000" stroke-miterlimit="10" d="M26.999,72.155l-10.783,0.007c1.601,2.421,3.452,4.66,5.518,6.684l2.882-1.924
		L26.999,72.155z"/>
	<path stroke="#000000" stroke-miterlimit="10" d="M27.943,82.904v-0.886l-1.347,0.898c0.443,0.317,0.892,0.627,1.349,0.926
		L27.943,82.904z"/>
	<polygon stroke="#000000" stroke-miterlimit="10" points="56.805,49.668 50.3,40.996 50.306,49.668 	"/>
	<path stroke="#000000" stroke-miterlimit="10" d="M84.416,72.131l-12.248,0.012v12.021C77.052,81.061,81.232,76.956,84.416,72.131z
		"/>
	<path stroke="#000000" stroke-miterlimit="10" d="M49.792,82.866l-0.014-10.711h-15.97l-4.115,8.218
		c-0.234,0.469-0.586,0.885-1.028,1.178l-0.195,0.124v1.229l0.001,1.276c6.182,3.92,13.485,6.224,21.324,6.32L49.792,82.866z"/>
	<polygon stroke="#000000" stroke-miterlimit="10" points="49.778,50.195 44.772,50.195 34.069,71.628 49.778,71.628 	"/>
	<path stroke="#000000" stroke-miterlimit="10" d="M28.457,27.721l21.309-0.014V8.836c-7.834,0.102-15.131,2.408-21.309,6.329
		V27.721z"/>
	<path stroke="#000000" stroke-miterlimit="10" d="M15.864,27.722h1.408H27.93v-12.22C23.095,18.675,18.979,22.845,15.864,27.722z"
		/>
	<path stroke="#000000" stroke-miterlimit="10" d="M17.272,71.627h9.987l0.677-1.359V50.195L9.474,50.206
		c0.102,7.882,2.437,15.221,6.4,21.423L17.272,71.627z"/>
	<path stroke="#000000" stroke-miterlimit="10" d="M27.93,38.958V28.249H17.272h-1.745C11.683,34.477,9.46,41.812,9.46,49.668
		c0,0.004,0,0.008,0,0.012l18.475-0.013L27.93,38.958z"/>
</g>
</svg>
