<?xml version="1.0" encoding="utf-8"?>
<!-- Generator: Adobe Illustrator 16.0.0, SVG Export Plug-In . SVG Version: 6.00 Build 0)  -->
<!DOCTYPE svg PUBLIC "-//W3C//DTD SVG 1.1//EN" "http://www.w3.org/Graphics/SVG/1.1/DTD/svg11.dtd">
<svg version="1.1" id="Layer_2" xmlns="http://www.w3.org/2000/svg" xmlns:xlink="http://www.w3.org/1999/xlink" x="0px" y="0px"
	 width="203px" height="59.952px" viewBox="0 0 203 59.952" enable-background="new 0 0 203 59.952" xml:space="preserve">
<g>
	<g>
		<defs>
			<path id="SVGID_1_" d="M168.232,0c0.01,0.355,0.031,0.435,0.058,0.615c0.019,0.129,0.06,0.245,0.092,0.367
				c0.042,0.158,0.044,0.333,0.077,0.496c0.012,0.056,0.033,0.125,0.042,0.183c0.052,0.36-0.042,0.687-0.015,1.1
				c0.015,0.205,0.043,0.411,0.053,0.616c0.008,0.166-0.029,0.297-0.039,0.471c-0.01,0.184,0.029,0.372,0.062,0.546
				c0.079,0.418,0.182,0.782,0.437,1.08c0.412,0.484,0.419,0.678,0.779,0.936c0.115,0.082,0.396,0.213,0.605,0.207
				c0.408-0.012,0.483-0.139,0.668-0.22c-0.003,0.012-0.017,0.021-0.02,0.032c-0.041,0.071-0.056,0.248-0.17,0.64
				c-0.081,0.276-0.114,0.566-0.125,0.87c-0.009,0.227-0.051,0.36,0.016,0.48c0.003,0.081-0.002,0.178,0.024,0.281
				c0.013,0.049,0.043,0.119,0.048,0.171c0.02,0.227,0.098,0.494,0.245,0.802c0.032,0.192,0.225,0.778,0.72,1.067
				c0.312,0.182,0.664,0.213,0.892,0.221c0.054,0.014,0.238,0.029,0.292,0.043c0.248,0.005,0.511-0.045,0.668-0.073
				c0.088-0.016,0.237-0.139,0.436-0.229c0.161-0.083,0.313-0.179,0.478-0.268c0.185-0.126,0.387-0.35,0.571-0.57
				c0.006,0.002,0.012,0.003,0.018,0.005c-0.012,0.042-0.022,0.065-0.033,0.107c-0.075,0.071-0.081,0.214-0.142,0.325
				c-0.146,0.267-0.284,0.45-0.452,0.659c-0.134,0.167-0.286,0.365-0.382,0.537c-0.039,0.07-0.121,0.137-0.217,0.295
				c-0.065,0.107-0.15,0.215-0.226,0.364c-0.059,0.117-0.098,0.284-0.164,0.438c-0.046,0.108-0.071,0.208-0.157,0.394
				c-0.017,0.035-0.082,0.092-0.121,0.172c-0.025,0.052-0.02,0.12-0.05,0.176c-0.065,0.121-0.148,0.229-0.195,0.36
				c-0.02,0.071-0.062,0.218-0.081,0.289c-0.068,0.255-0.049,0.317-0.1,0.496c-0.021,0.071-0.058,0.178-0.078,0.232
				c-0.093,0.227-0.131,0.412-0.244,0.61c-0.052,0.094-0.104,0.308-0.14,0.401c-0.038,0.101-0.1,0.228-0.128,0.396
				c-0.069,0.408-0.05,0.77-0.075,0.958c-0.001,0.085-0.021,0.229-0.013,0.28c0.015,0.143,0.013,0.317,0.039,0.454
				c0.012,0.068,0.014,0.156,0.008,0.225c0.009,0.087,0.049,0.217,0.063,0.302c0.01,0.062-0.018,0.086,0.008,0.212
				c0.018,0.083,0.047,0.176,0.061,0.255c0.059,0.339,0.082,0.61,0.225,0.774c0.053,0.06,0.084,0.152,0.153,0.205
				c0.284,0.217,0.773,0.367,1.062,0.48c0.099,0.039,0.271,0.047,0.336,0.065c0.137,0.036,0.301,0.073,0.418,0.029
				c0.139-0.053,0.42-0.192,0.678-0.225c0.186-0.022,0.508-0.063,0.788-0.131c0.474-0.114,0.958-0.295,1.381-0.467
				c0.521-0.157,0.67-0.381,1.101-0.507c-0.129,0.326-0.086,0.476-0.016,0.652c0.049,0.126,0.116,0.269,0.222,0.354
				c0.056,0.046,0.139,0.055,0.205,0.094c0.118,0.069,0.244,0.121,0.387,0.158c0.71,0.183,0.726,0.121,1.087,0.115
				c0.081,0.006,0.273,0.016,0.353,0.03c0.218,0.002,0.426,0.064,0.63,0.121c0.15,0.042,0.299,0.074,0.422,0.077
				c0.391,0.022,0.561-0.129,0.889-0.158c0.328-0.029,0.609-0.076,0.914-0.19c0.17-0.064,0.396-0.193,0.564-0.259
				c0.502-0.194,0.947-0.316,1.472-0.526c0.265-0.106,0.487-0.172,0.665-0.279c-0.015,0.035-0.021,0.06-0.033,0.082
				c-0.088,0.058-0.115,0.131-0.192,0.215c-0.132,0.144-0.28,0.338-0.454,0.452c-0.182,0.119-0.359,0.243-0.521,0.395
				c-0.231,0.217-0.43,0.504-0.647,0.687c-0.082,0.068-0.146,0.198-0.22,0.28c-0.221,0.242-0.411,0.475-0.629,0.783
				c-0.064,0.093-0.105,0.196-0.149,0.312c-0.07,0.186-0.176,0.373-0.261,0.492c-0.02,0.034-0.107,0.28-0.157,0.376
				c-0.148,0.228-0.181,0.384-0.319,0.63c-0.028,0.046-0.096,0.332-0.145,0.492c-0.027,0.089-0.065,0.233-0.061,0.355
				c0.008,0.175,0.06,0.32,0.092,0.367c0.049,0.07,0.124,0.09,0.143,0.179c0.01,0.027,0,0.041-0.023,0.08
				c-0.133,0.083-0.301,0.19-0.455,0.296c-0.076,0.053-0.206,0.11-0.291,0.152c-0.099,0.048-0.129,0.099-0.184,0.144
				c-0.117,0.096-0.254,0.177-0.367,0.279c-0.232,0.209-0.18,0.261-0.296,0.413c-0.039,0.051-0.1,0.115-0.142,0.154
				c-0.12,0.113-0.209,0.241-0.312,0.383c-0.129,0.179-0.288,0.356-0.38,0.652c-0.043,0.138-0.108,0.349-0.07,0.46
				c0.069,0.204,0.136,0.396,0.217,0.55c0.038,0.071,0.064,0.174,0.093,0.251c0.021,0.055,0.052,0.058,0.09,0.105
				c0.032,0.065,0.12,0.2,0.16,0.247c0.144,0.177,0.243,0.289,0.406,0.436c0.104,0.094,0.239,0.31,0.358,0.396
				c0.086,0.062,0.229,0.124,0.386,0.201c0.116,0.057,0.233,0.135,0.379,0.184c0.284,0.096,0.776,0.263,1.104,0.351
				c-0.002,0.006-0.031,0.004-0.033,0.011c-0.012-0.003-0.087-0.001-0.119,0.004c-0.147,0.032-0.38-0.018-0.67-0.013
				c-0.339,0.006-0.688-0.033-1.024-0.082c-0.239-0.035-0.563-0.019-0.694-0.017c-0.105,0.001-0.232,0.052-0.328,0.074
				c-0.123,0.027-0.26,0.032-0.377,0.065c-0.172,0.051-0.352,0.096-0.492,0.122c-0.046,0.007-0.126,0.009-0.168,0.02
				c-0.118,0.041-0.23,0.092-0.354,0.121c-0.172,0.041-0.31,0.043-0.488,0.083c-0.157,0.035-0.347,0.096-0.504,0.143
				c-0.071,0.006-0.282,0.037-0.319,0.055c-0.075,0.043-0.068,0.069-0.126,0.085c-0.064,0.021-0.173,0.045-0.244,0.052
				c-0.106,0.036-0.243,0.109-0.348,0.149c-0.202,0.078-0.409,0.16-0.599,0.202c-0.03,0.007-0.047,0.049-0.072,0.068
				c-0.081,0.042-0.137,0.087-0.217,0.129c-0.078,0.062-0.183,0.13-0.258,0.191c-0.108,0.088-0.259,0.204-0.312,0.229
				c-0.032,0.014-0.086,0.153-0.11,0.259c-0.012,0.046-0.063,0.067-0.124,0.171c-0.057,0.097-0.179,0.093-0.28,0.201
				c-0.157,0.165-0.015,0.336,0.076,0.627c0.045,0.146,0.135,0.394,0.216,0.511c0.042,0.06,0.097,0.091,0.132,0.152
				c0.047,0.079,0.075,0.141,0.109,0.226c0.074,0.182,0.387,0.581,0.527,0.731c0.069,0.074,0.162,0.133,0.236,0.208
				c0.336,0.341,0.573,0.726,0.816,1.112c0.176,0.278,0.331,0.563,0.547,0.843c0.045,0.058,0.037,0.099,0.078,0.16
				c0.119,0.179,0.25,0.274,0.353,0.399c0.104,0.128,0.188,0.292,0.312,0.405c0.082,0.075,0.207,0.152,0.312,0.236
				c0.093,0.074,0.168,0.16,0.263,0.233c0.167,0.131,0.336,0.218,0.511,0.343c0.144,0.103,0.258,0.247,0.565,0.436
				c0.122,0.075,0.224,0.204,0.397,0.282c0.096,0.044,0.254,0.15,0.346,0.217c0.089,0.048,0.314,0.132,0.438,0.171
				c0.106,0.075,0.33,0.144,0.55,0.215c-0.002,0.006-0.079,0.001-0.114-0.003c-0.192-0.038-0.194,0.021-0.432-0.014
				c-0.053,0.004-0.142,0.004-0.189-0.008c-0.182-0.028-0.288-0.021-0.47-0.058c-0.114-0.023-0.288-0.064-0.411-0.11
				c-0.189-0.071-0.407-0.107-0.589-0.173c-0.274-0.1-0.451-0.172-0.903-0.302c-0.109-0.032-0.4-0.072-0.472-0.093
				c-0.22-0.065-0.544-0.189-0.763-0.204c-0.175-0.054-0.295-0.093-0.484-0.134c-0.145-0.03-0.342-0.083-0.506-0.102
				c-0.09-0.01-0.2-0.002-0.281-0.02c-0.089-0.023-0.157-0.041-0.251-0.056c-0.089-0.015-0.167,0.007-0.232-0.008
				c-0.298-0.072-0.346-0.003-0.551-0.057c-0.105-0.028-0.31-0.06-0.454-0.088c-0.041-0.008-0.077,0.033-0.188,0.018
				c-0.08-0.011-0.144,0.011-0.225,0.02c-0.099-0.044-0.394-0.011-0.562-0.018c-0.045,0-0.149-0.023-0.195-0.037
				c-0.244-0.003-0.477-0.026-0.762-0.017c-0.127-0.029-0.25-0.044-0.384-0.049c-0.129-0.005-0.265-0.028-0.384-0.012
				c-0.121,0.016-0.23,0.042-0.338,0.106c-0.078,0.047-0.152,0.043-0.239,0.114c-0.091,0.072-0.261,0.167-0.307,0.242
				c-0.034,0.058-0.056,0.113-0.069,0.186c-0.014,0.066-0.044,0.159-0.035,0.252c0.012,0.11,0.032,0.217,0.045,0.321
				c0.015,0.118,0.024,0.233,0.096,0.351c-0.013,0.006-0.044,0.004-0.067-0.002c-0.056-0.078-0.2-0.116-0.281-0.193
				c-0.171-0.162-0.378-0.309-0.547-0.462c-0.045-0.034-0.215-0.091-0.321-0.161c-0.23-0.105-0.514-0.285-0.777-0.422
				c-0.193-0.1-0.382-0.188-0.605-0.263c-0.227-0.076-0.548-0.16-0.656-0.203c-0.113-0.044-0.236-0.092-0.522-0.174
				c-0.338-0.097-0.598-0.186-0.903-0.238c-0.138-0.024-0.405-0.129-0.574-0.192c-0.033-0.012-0.127-0.017-0.152-0.017
				c-0.064-0.014-0.136-0.022-0.213-0.042c-0.188-0.043-0.377-0.032-0.465-0.046c-0.144-0.021-0.264-0.062-0.398-0.02
				c-0.043,0.013-0.184,0.066-0.229,0.08c-0.327,0.101-0.68,0.327-0.971,0.599c-0.038,0.036-0.102,0.12-0.138,0.153
				c-0.045,0.026-0.076,0.061-0.121,0.094c-0.116,0.145-0.217,0.21-0.346,0.348c-0.041,0.039-0.133,0.118-0.164,0.142
				c-0.031,0.048-0.058,0.07-0.087,0.097c-0.039,0.038-0.091,0.088-0.129,0.132c-0.125,0.142-0.188,0.383-0.263,0.481
				c-0.055,0.072-0.088,0.36-0.108,0.488c-0.042,0.135-0.067,0.255-0.11,0.389c-0.057,0.264-0.137,0.55-0.188,0.822
				c-0.009-0.025-0.018-0.046-0.021-0.055c-0.006-0.031-0.017-0.095-0.024-0.138c-0.018-0.148-0.076-0.408-0.073-0.675
				c0.001-0.081-0.083-0.205-0.106-0.409c-0.051-0.442-0.148-0.855-0.257-1.287c-0.067-0.269-0.183-0.497-0.281-0.798
				c-0.032-0.047-0.057-0.119-0.089-0.165c-0.029-0.081-0.016-0.142-0.057-0.216c-0.08-0.148-0.224-0.353-0.303-0.521
				c-0.039-0.083-0.081-0.171-0.116-0.258c-0.016-0.039-0.066-0.107-0.083-0.145c-0.039-0.086-0.041-0.14-0.084-0.224
				c-0.061-0.118-0.141-0.243-0.201-0.378c-0.079-0.175-0.135-0.351-0.164-0.386c-0.053-0.063-0.066-0.213-0.094-0.292
				c-0.043-0.122-0.09-0.254-0.104-0.376c-0.022-0.203-0.032-0.355-0.091-0.532c-0.052-0.161-0.124-0.308-0.15-0.506
				c-0.007-0.048-0.027-0.152-0.05-0.279c0-0.287-0.018-0.376-0.05-0.409c-0.014,0.028-0.033,0.083-0.049,0.112
				c-0.037,0.083-0.094,0.223-0.133,0.328c-0.057,0.15-0.119,0.266-0.166,0.396c-0.031,0.084-0.046,0.171-0.084,0.25
				c-0.04,0.081-0.169,0.382-0.31,0.759c-0.095,0.252-0.208,0.524-0.308,0.787c-0.082,0.216-0.166,0.417-0.232,0.588
				c-0.099,0.253-0.188,0.396-0.235,0.577c-0.034,0.128-0.162,0.411-0.292,0.738c-0.193,0.488-0.407,0.993-0.45,1.085
				c-0.053,0.113-0.131,0.333-0.169,0.43c-0.11,0.249-0.273,0.682-0.411,0.994c-0.031,0.093-0.101,0.241-0.127,0.292
				c-0.085,0.165-0.31,0.737-0.371,0.85c-0.021,0.041-0.239,0.616-0.479,1.121c-0.229,0.485-0.433,0.961-0.584,1.313
				c-0.117,0.273-0.229,0.661-0.328,0.977c-0.035,0.13-0.076,0.293-0.109,0.389c-0.097,0.237-0.217,0.554-0.259,0.619
				c-0.031,0.032-0.09,0.045-0.15,0.045c-0.118-0.194-0.698-0.223-0.582-0.625c0.148-0.139,0.3-0.702,0.425-0.918
				c0.319-0.553,0.597-1.139,0.909-1.695c0.1-0.194,0.189-0.39,0.284-0.605c0.215-0.381,0.404-0.803,0.591-1.225
				c0.193-0.434,0.337-0.727,0.491-1.091c0.121-0.286,0.234-0.558,0.353-0.819c0.141-0.311,0.281-0.649,0.439-0.985
				c0.069-0.145,0.404-1.11,0.634-1.6c0.062-0.14,0.119-0.306,0.183-0.46c0.064-0.131,0.173-0.418,0.244-0.603
				c0.043-0.134,0.09-0.251,0.133-0.385c0.102-0.202,0.207-0.526,0.283-0.742c0.061-0.167,0.17-0.436,0.238-0.681
				c0.004-0.018,0.008-0.03-0.004-0.033c-0.007,0.005-0.074,0.042-0.091,0.057c-0.074,0.056-0.376,0.294-0.603,0.532
				c-0.129,0.135-0.209,0.242-0.312,0.375c-0.231,0.296-0.426,0.485-0.779,0.749c-0.082,0.061-0.211,0.123-0.309,0.158
				c-0.106,0.039-0.188,0.109-0.286,0.163c-0.034,0.01-0.132,0.061-0.179,0.097c-0.215,0.132-0.496,0.298-0.76,0.478
				c-0.131,0.089-0.299,0.238-0.449,0.289c-0.194,0.066-0.344,0.159-0.505,0.267c-0.169,0.112-0.329,0.214-0.425,0.331
				c-0.116,0.14-0.175,0.28-0.285,0.414c-0.246,0.3-0.5,0.536-0.817,0.718c-0.099,0.057-0.237,0.121-0.359,0.108
				c-0.04-0.002-0.153-0.027-0.172-0.028c0.06-0.035,0.128-0.071,0.185-0.115c0.104-0.071,0.057-0.135,0.127-0.18
				c0.084-0.053,0.148-0.191,0.227-0.327c0.045-0.076,0.092-0.169,0.122-0.223c0.128-0.229,0.161-0.538,0.163-0.735
				c0.008-0.054-0.003-0.113,0.01-0.168c0.016-0.074,0.021-0.195,0.033-0.288c0-0.086-0.016-0.264-0.014-0.444
				c0-0.12-0.057-0.279-0.09-0.391c-0.014-0.045,0.002-0.146-0.029-0.187c-0.057-0.07-0.099-0.248-0.145-0.494
				c-0.053-0.278-0.111-0.517-0.353-0.876c-0.118-0.176-0.387-0.292-0.507-0.35c-0.131-0.063-0.331-0.122-0.543-0.217
				c-0.186-0.083-0.38-0.19-0.588-0.242c-0.136-0.034-0.496-0.125-0.696-0.154c-0.084-0.012-0.21-0.038-0.299-0.061
				c-0.372-0.029-0.755-0.015-1.074,0.013c-0.2-0.042-0.515-0.021-0.816,0.056c-0.105,0.017-0.204,0.004-0.295,0.025
				c-0.077,0.017-0.115,0.028-0.214,0.026c-0.138,0.018-0.283,0.029-0.434,0.055c-0.527,0.094-0.784,0.248-1.273,0.21
				c0.009-0.012,0.02-0.022,0.026-0.028c0.071-0.033,0.125-0.086,0.168-0.132c0.203-0.079,0.452-0.405,0.562-0.607
				c0.038-0.069,0.065-0.194,0.094-0.304c0.067-0.108,0.06-0.119,0.031-0.171c-0.073-0.127-0.185-0.245-0.318-0.334
				c-0.089-0.047-0.148-0.083-0.218-0.141c-0.249-0.178-0.534-0.366-0.859-0.589c-0.117-0.08-0.29-0.129-0.432-0.229
				c-0.054-0.038-0.104-0.05-0.161-0.087c-0.063-0.042-0.152-0.113-0.218-0.156c-0.162-0.108-0.234-0.128-0.287-0.167
				c-0.059-0.052-0.361-0.246-0.584-0.37c-0.078-0.132-0.405-0.191-0.493-0.233c-0.094-0.045-0.147-0.083-0.206-0.12
				c-0.056-0.006-0.247-0.07-0.306-0.102c-0.158-0.092-0.288-0.177-0.427-0.302c-0.062-0.057-0.232-0.104-0.383-0.166
				c-0.216-0.088-0.535-0.262-0.738-0.332c-0.271-0.094-0.469-0.205-0.804-0.365c-0.156-0.075-0.364-0.15-0.492-0.207
				c-0.062-0.027-0.101-0.077-0.161-0.105c-0.238-0.112-0.453-0.276-0.613-0.402c-0.242-0.19-0.341-0.322-0.486-0.53
				c0.014,0.008,0.029,0.017,0.048,0.028c0.046,0.068,0.144,0.099,0.22,0.15c0.078,0.054,0.195,0.117,0.332,0.171
				c0.199,0.079,0.434,0.145,0.609,0.184c0.133,0.029,0.425,0.099,0.505,0.119c0.129,0.017,0.374,0.067,0.593,0.081
				c0.124,0,0.391-0.013,0.504-0.009c0.163,0.005,0.342,0.03,0.534,0.001c0.228-0.033,0.468-0.153,0.672-0.227
				c0.262-0.094,0.486-0.204,0.745-0.307c0.153-0.061,0.34-0.225,0.505-0.32c0.083-0.047,0.198-0.121,0.274-0.175
				c0.314-0.221,0.452-0.276,0.754-0.38c0.074-0.052,0.229-0.08,0.302-0.106c0.138-0.049,0.3-0.187,0.421-0.27
				c0.076-0.052,0.254-0.123,0.334-0.172c0.12-0.074,0.363-0.252,0.514-0.415c0.036-0.039,0.116-0.114,0.141-0.214
				c0.07-0.047,0.105-0.128,0.102-0.208c-0.003-0.056-0.035-0.134-0.046-0.184c-0.002-0.116,0.034-0.231-0.037-0.429
				c-0.108-0.369-0.479-0.702-0.769-0.967c-0.094-0.086-0.204-0.148-0.285-0.245c-0.097-0.116-0.195-0.187-0.283-0.285
				c-0.092-0.104-0.173-0.222-0.29-0.321c-0.027-0.023-0.16-0.086-0.218-0.132c-0.041-0.033-0.112-0.122-0.147-0.155
				c-0.131-0.124-0.267-0.182-0.408-0.297c-0.147-0.121-0.13-0.195-0.403-0.389c-0.078-0.055-0.135-0.117-0.203-0.167
				c-0.086-0.063-0.221-0.129-0.315-0.187c-0.052-0.042-0.114-0.133-0.159-0.173c-0.15-0.135-0.34-0.171-0.539-0.271
				c-0.18-0.091-0.322-0.221-0.461-0.305c-0.081-0.048-0.205-0.011-0.282-0.03c-0.132-0.033-0.248-0.119-0.308-0.154
				c-0.106-0.063-0.247-0.024-0.305-0.081c0.131,0.009,0.197-0.031,0.295-0.024c0.094,0.011,0.207,0.05,0.258,0.058
				c0.132,0.021,0.26-0.015,0.375-0.017c0.17-0.004,0.215,0.1,0.479,0.073c0.065-0.007,0.178-0.033,0.24-0.039
				c0.14-0.012,0.3,0.065,0.428,0.028c0.1-0.028,0.143-0.111,0.202-0.148c0.144-0.09,0.31-0.145,0.475-0.26
				c0.13-0.091,0.209-0.18,0.296-0.213c0.041-0.015,0.083-0.032,0.131-0.02c0.041-0.05,0.09-0.088,0.033-0.12
				c-0.209-0.354-0.063-0.488-0.216-0.971c-0.04-0.126-0.29-0.471-0.397-0.639c-0.119-0.187-0.255-0.424-0.393-0.6
				c-0.116-0.127-0.446-0.414-0.556-0.47c-0.125-0.064-0.248-0.123-0.357-0.201c-0.144-0.102-0.118-0.166-0.364-0.242
				c0.008-0.005,0.015-0.009,0.022-0.013c0.178-0.031,0.369,0.04,0.588,0.005c0.179-0.028,0.431-0.184,0.558-0.307
				c0.127-0.122,0.136-0.3,0.172-0.455c0.031-0.133-0.049-0.366-0.062-0.523c-0.021-0.252-0.065-0.507-0.117-0.797
				c-0.019-0.104-0.038-0.228-0.077-0.322c-0.02-0.046-0.066-0.101-0.088-0.146c-0.098-0.208-0.177-0.418-0.256-0.631
				c-0.051-0.133-0.099-0.088-0.252-0.39c-0.09-0.175-0.188-0.347-0.309-0.502c-0.119-0.152-0.242-0.278-0.368-0.427
				c-0.523-0.616-0.745-0.996-1.023-1.488c-0.065-0.116-0.142-0.202-0.233-0.361c0.012,0.003,0.026,0.006,0.038,0.014
				c0.069,0.06,0.263,0.183,0.438,0.279c0.144,0.079,0.329,0.188,0.486,0.264c0.249,0.119,0.572,0.272,0.722,0.36
				c0.042,0.021,0.115,0.044,0.175,0.064c0.015,0.01,0.045,0.038,0.062,0.047c0.252,0.144,0.859,0.378,1.378,0.596
				c0.127,0.053,0.254,0.108,0.38,0.145c0.071,0.035,0.224,0.076,0.291,0.106c0.211,0.104,0.359,0.137,0.539,0.221
				c0.116,0.052,0.472,0.142,0.676,0.209c0.104,0.035,0.264,0.077,0.372,0.098c0.086,0.023,0.201,0.046,0.313,0.076
				c0.287,0.066,0.639,0.102,0.773,0.169c0.142,0.038,0.283,0.076,0.426,0.114c0.257,0.077,0.518,0.17,0.737,0.16
				c0.164-0.008,0.361-0.077,0.565-0.162c0.227-0.095,0.44-0.206,0.535-0.324c0.148-0.186,0.091-0.593,0.107-0.827
				c0.006,0.001,0.009,0.01,0.014,0.014c0.058,0.15,0.178,0.29,0.278,0.417c0.061,0.105,0.134,0.203,0.194,0.308
				c0.062,0.077,0.139,0.141,0.209,0.215c0.144,0.153,0.283,0.326,0.443,0.473c0.206,0.188,0.397,0.283,0.63,0.454
				c0.101,0.073,0.244,0.211,0.329,0.297c0.089,0.089,0.211,0.139,0.316,0.221c0.086,0.065,0.137,0.147,0.252,0.217
				c0.117,0.057,0.242,0.122,0.357,0.197c0.128,0.083,0.293,0.178,0.502,0.292c0.217,0.119,0.291,0.195,0.402,0.268
				c0.168,0.108,0.636,0.206,0.819,0.212c0.059,0.002,0.129,0.039,0.157,0.049c0.138,0.055,0.316,0.094,0.426,0.095
				c0.027,0.003,0.169,0.026,0.234,0.044c0.076-0.002,0.096-0.048,0.158-0.063c0.091-0.022,0.137,0.027,0.246-0.075
				c0.091-0.085,0.213-0.181,0.305-0.288c0.051-0.06,0.097-0.122,0.136-0.188c0.05-0.118,0.182-0.417,0.278-0.816
				c0.042-0.135,0.104-0.264,0.156-0.396c0.118-0.266,0.248-0.433,0.359-0.779c0.118-0.366,0.135-0.802,0.152-1.101
				c0.008-0.156,0.066-0.322,0.085-0.452c0.011-0.071,0.042-0.169,0.054-0.209c0.008-0.028,0-0.133,0-0.153
				c0.021-0.102,0.025-0.175,0.047-0.277c0.027-0.137,0.025-0.324,0.025-0.469c-0.007-0.092,0.038-0.244,0.064-0.363
				c0.022-0.139,0.014-0.308,0.015-0.434c0.008-0.066,0.077-0.277,0.106-0.447c0.005-0.151,0.004-0.287,0.05-0.519
				c0.032-0.16,0.044-0.316,0.053-0.461c0.007-0.115-0.027-0.188-0.031-0.274c-0.005-0.105,0.026-0.188,0.026-0.252
				c0-0.146-0.035-0.293-0.055-0.439c-0.049-0.375-0.135-0.635-0.199-0.948c0.012,0.003,0.022,0.007,0.033,0.017
				c0.091,0.221,0.227,0.29,0.305,0.448c0.109,0.219,0.318,0.481,0.601,0.74c0.352,0.323,0.644,0.608,0.924,0.721
				c0.103,0.042,0.585,0.26,0.71,0.274c0.105,0.011,0.256-0.092,0.344-0.114c0.138-0.035,0.125,0.052,0.312-0.087
				c0.198-0.148,0.455-0.298,0.642-0.505c0.188-0.21,0.336-0.458,0.49-0.725c0.083-0.142,0.111-0.201,0.172-0.369
				c0.045-0.124,0.238-0.619,0.271-0.787c0.063-0.326,0.008-0.463,0.021-1.041c0.012,0.003,0.016,0.004,0.027,0.007
				c0.078,0.127,0.231,0.262,0.354,0.38c0.099,0.095,0.331,0.272,0.533,0.293c0.508,0.051,0.936-0.123,1.284-0.378
				c0.142-0.069,0.319-0.179,0.443-0.318c0.193-0.18,0.432-0.288,0.633-0.458c0.188-0.159,0.322-0.391,0.494-0.571
				c0.15-0.159,0.346-0.319,0.478-0.5c0.292-0.397,0.502-0.75,0.784-1.292c0.049-0.1,0.097-0.291,0.14-0.369
				c0.106-0.173,0.192-0.515,0.321-0.783c0.035-0.087,0.062-0.204,0.084-0.287c0.076-0.328,0.154-0.613,0.229-0.942
				C168.169,0.15,168.195,0.115,168.232,0z"/>
		</defs>
		<use xlink:href="#SVGID_1_"  overflow="visible" fill-rule="evenodd" clip-rule="evenodd" fill="#555555"/>
		<clipPath id="SVGID_2_">
			<use xlink:href="#SVGID_1_"  overflow="visible"/>
		</clipPath>
		<g id="LEAF_x5F_gold.tif_1_" clip-path="url(#SVGID_2_)">
			<g>
				<defs>
					
						<rect id="SVGID_3_" x="136.033" y="-2.812" transform="matrix(0.2588 -0.9659 0.9659 0.2588 96.2679 174.516)" width="51.634" height="54.684"/>
				</defs>
				<use xlink:href="#SVGID_3_"  overflow="visible" fill="#555555"/>
				<clipPath id="SVGID_4_">
					<use xlink:href="#SVGID_3_"  overflow="visible"/>
				</clipPath>
				<g id="LEAF_x5F_gold_x5F_SM.tif" clip-path="url(#SVGID_4_)">
					<g>
						<defs>
							
								<rect id="SVGID_5_" x="136.034" y="-2.814" transform="matrix(0.2588 -0.9659 0.9659 0.2588 96.2619 174.5143)" width="51.631" height="54.689"/>
						</defs>
						<use xlink:href="#SVGID_5_"  overflow="visible" fill="#555555"/>
						<clipPath id="SVGID_6_">
							<use xlink:href="#SVGID_5_"  overflow="visible"/>
						</clipPath>
						<g id="LEAF_x5F_gold_x5F_SM.tif_1_" clip-path="url(#SVGID_6_)">
							<g>
								<defs>
									
										<rect id="SVGID_7_" x="136.033" y="-2.812" transform="matrix(0.2588 -0.9659 0.9659 0.2588 96.2677 174.5174)" width="51.634" height="54.685"/>
								</defs>
								<use xlink:href="#SVGID_7_"  overflow="visible" fill="#555555"/>
								<clipPath id="SVGID_8_">
									<use xlink:href="#SVGID_7_"  overflow="visible"/>
								</clipPath>
								<g id="LEAF_x5F_gray_x5F_SM.tif" clip-path="url(#SVGID_8_)">
									<g>
										<g>
											<defs>
												
													<rect id="SVGID_9_" x="136.032" y="-2.812" transform="matrix(0.2588 -0.9659 0.9659 0.2588 96.2635 174.5146)" width="51.634" height="54.685"/>
											</defs>
											<clipPath id="SVGID_10_">
												<use xlink:href="#SVGID_9_"  overflow="visible"/>
											</clipPath>
											<g transform="matrix(1 0 0 1 0 -3.814697e-06)" clip-path="url(#SVGID_10_)">
												
													<image overflow="visible" width="1488" height="1405" xlink:href="DC25360D7F391A1A.jpg"  transform="matrix(0.0355 0.0095 -0.0095 0.0355 142.1201 -7.4839)">
												</image>
											</g>
										</g>
									</g>
									<g>
										<g>
											<defs>
												
													<rect id="SVGID_11_" x="136.032" y="-2.812" transform="matrix(0.2588 -0.9659 0.9659 0.2588 96.2635 174.5146)" width="51.634" height="54.685"/>
											</defs>
											<clipPath id="SVGID_12_">
												<use xlink:href="#SVGID_11_"  overflow="visible"/>
											</clipPath>
											<g transform="matrix(1 0 0 1 0 -3.814697e-06)" clip-path="url(#SVGID_12_)">
												
													<image overflow="visible" width="1488" height="1405" xlink:href="DC25360D7F391A1D.jpg"  transform="matrix(0.0355 0.0095 -0.0095 0.0355 142.1201 -7.4839)">
												</image>
											</g>
										</g>
									</g>
								</g>
							</g>
						</g>
					</g>
				</g>
			</g>
		</g>
	</g>
	<g>
		<g>
			<path fill="#555555" d="M34.396,13.333h-3.847l-8.694,22.774H10.215v-22.58H6.172V39.45h14.406h1.884h2.159l2.552-6.917h10.441
				l2.59,6.917h4.161L34.396,13.333z M28.429,29.19l3.965-10.727l4.003,10.727H28.429z"/>
			<path fill="#555555" d="M44.704,13.528h4.043v15.856c0,5.091,2.905,7.112,6.791,7.112c3.925,0,6.751-2.216,6.751-6.918V13.528
				h4.004v15.895c0,6.84-4.868,10.494-10.794,10.494c-5.967,0-10.795-2.76-10.795-9.949V13.528z"/>
			<path fill="#555555" d="M70.4,13.528h7.693c6.752,0,9.5,3.458,9.5,7.384c0,3.537-2.395,5.985-5.024,7.19l7.694,11.348h-4.789
				l-6.987-10.415h-4.043V39.45H70.4V13.528z M78.016,25.692c2.944,0,5.299-1.632,5.299-4.508c0-2.332-1.531-4.314-5.888-4.314
				h-2.983v8.822H78.016z"/>
			<path fill="#555555" d="M92.354,13.528h4.042V39.45h-4.042V13.528z"/>
			<path fill="#555555" d="M101.304,13.528h15.937v3.342h-11.894v7.695h9.382v3.381h-9.382v8.162h12.012v3.342h-16.055V13.528z"/>
			<path fill="#555555" d="M120.812,13.528h7.693c6.752,0,9.5,3.458,9.5,7.384c0,3.537-2.395,5.985-5.025,7.19l7.694,11.348h-4.789
				l-6.987-10.415h-4.043V39.45h-4.043V13.528z M128.428,25.692c2.943,0,5.299-1.632,5.299-4.508c0-2.332-1.53-4.314-5.888-4.314
				h-2.983v8.822H128.428z"/>
		</g>
	</g>
	<g>
		<path fill="#555555" d="M90.438,42.376h-0.906v0.287c0.769,0.172,0.757,0.287,0.631,0.837l-1.09,5.497
			c-0.092,0.402-0.413,0.631-0.896,0.7v0.367l2.616-0.068l0.035-0.321l-0.964-0.104c0,0,0.115-0.321,0.195-0.7l1.01-5.106
			c0.184-0.953,0.631-1.388,0.631-1.388l-0.046-0.046C91.654,42.331,91.401,42.376,90.438,42.376z"/>
		<path fill="#555555" d="M96.427,49.525c-0.138,0-0.229-0.104-0.229-0.252c0-0.436,0.654-2.719,0.654-3.545
			c0-0.528-0.265-0.999-0.965-0.999c-1.01,0-1.916,0.941-2.329,1.629h-0.023c0,0,0.333-1.056,0.333-1.732l-0.034-0.035
			c-0.459,0.264-1.102,0.413-1.744,0.516v0.31h0.47c0.218,0,0.275,0.149,0.275,0.31c0,0.424-0.837,3.396-0.837,4.383l0.929-0.08
			c0.023-0.643,0.138-1.159,0.275-1.813l0.126-0.585c0.172-0.826,1.09-2.168,2.088-2.168c0.414,0,0.506,0.264,0.506,0.516
			c0,0.688-0.666,3.029-0.666,3.615c0,0.31,0.184,0.574,0.608,0.574c0.666,0,1.319-0.677,1.319-0.677l-0.046-0.333
			C97.138,49.158,96.714,49.525,96.427,49.525z"/>
		<path fill="#555555" d="M99.756,45.107c0.596,0,0.551,0.631,1.044,0.631c0.298,0,0.447-0.229,0.447-0.448
			c0-0.493-0.757-0.562-1.113-0.562c-1.044,0-1.962,0.562-1.962,1.606c0,1.412,1.721,1.469,1.721,2.582
			c0,0.551-0.412,0.872-0.849,0.872c-0.654,0-0.643-0.757-1.182-0.757c-0.275,0-0.448,0.218-0.448,0.459
			c0,0.516,0.815,0.677,1.332,0.677c0.998,0,1.95-0.562,1.95-1.629c0-1.458-1.744-1.515-1.744-2.582
			C98.952,45.428,99.331,45.107,99.756,45.107z"/>
		<path fill="#555555" d="M105.345,44.729c-1.147,0-2.008,1.515-2.008,1.515h-0.023c0.173-0.528,0.265-1.067,0.265-1.618
			l-0.035-0.035c-0.459,0.264-1.102,0.413-1.744,0.516v0.31h0.471c0.195,0,0.275,0.115,0.275,0.298c0,0.104-0.068,0.459-0.104,0.597
			l-1.078,4.842c-0.115,0.516-0.207,0.975-0.253,1.652l0.046,0.046c0.275-0.161,1.159-0.402,1.905-0.494l-0.023-0.344
			c0,0-0.298,0.057-0.527,0.057c-0.517,0-0.401-0.252-0.287-0.769l0.275-1.228c0.287,0.034,0.539,0.092,0.918,0.092
			c2.181,0,3.19-2.18,3.19-3.718C106.607,45.268,106.021,44.729,105.345,44.729z M103.337,49.777c-0.551,0-0.734-0.275-0.632-0.677
			l0.356-1.469c0.184-0.746,1.102-2.214,1.928-2.214c0.31,0,0.608,0.275,0.608,1.159C105.598,48.114,104.714,49.777,103.337,49.777z
			"/>
		<path fill="#555555" d="M109.145,42.319c-0.506,0-0.724,0.447-0.724,0.78c0,0.264,0.126,0.459,0.459,0.459
			c0.505,0,0.724-0.459,0.724-0.792C109.604,42.502,109.477,42.319,109.145,42.319z"/>
		<path fill="#555555" d="M108.524,49.525c-0.138,0-0.229-0.08-0.229-0.275c0-0.436,0.872-3.672,0.872-4.624l-0.034-0.035
			c-0.287,0.207-1.102,0.424-1.744,0.516v0.31h0.264c0.355,0,0.447,0.172,0.447,0.39c0,0.401-0.746,3.121-0.746,3.741
			c0,0.356,0.173,0.62,0.598,0.62c0.688,0,1.33-0.677,1.33-0.677l-0.045-0.333C109.236,49.158,108.812,49.525,108.524,49.525z"/>
		<path fill="#555555" d="M113.446,44.729c-0.527,0-1.216,0.826-1.652,1.629h-0.022c0,0,0.332-1.056,0.332-1.732l-0.034-0.035
			c-0.459,0.264-1.102,0.413-1.744,0.516v0.31h0.471c0.218,0,0.275,0.149,0.275,0.31c0,0.424-0.838,3.396-0.838,4.383l0.93-0.08
			c0.034-0.643,0.138-1.159,0.275-1.813l0.126-0.585c0.138-0.619,0.884-1.939,1.4-1.939c0.195,0,0.275,0.103,0.481,0.103
			c0.31,0,0.54-0.252,0.54-0.551C113.986,44.993,113.756,44.729,113.446,44.729z"/>
		<path fill="#555555" d="M115.563,49.525c-0.138,0-0.229-0.08-0.229-0.275c0-0.436,0.872-3.672,0.872-4.624l-0.034-0.035
			c-0.287,0.207-1.102,0.424-1.744,0.516v0.31h0.264c0.355,0,0.447,0.172,0.447,0.39c0,0.401-0.745,3.121-0.745,3.741
			c0,0.356,0.172,0.62,0.597,0.62c0.688,0,1.331-0.677,1.331-0.677l-0.046-0.333C116.275,49.158,115.851,49.525,115.563,49.525z"/>
		<path fill="#555555" d="M116.184,42.319c-0.505,0-0.723,0.447-0.723,0.78c0,0.264,0.126,0.459,0.459,0.459
			c0.504,0,0.723-0.459,0.723-0.792C116.643,42.502,116.516,42.319,116.184,42.319z"/>
		<path fill="#555555" d="M121.612,49.525c-0.138,0-0.229-0.104-0.229-0.252c0-0.436,0.654-2.719,0.654-3.545
			c0-0.528-0.264-0.999-0.964-0.999c-1.01,0-1.917,0.941-2.329,1.629h-0.023c0,0,0.333-1.056,0.333-1.732l-0.034-0.035
			c-0.459,0.264-1.102,0.413-1.744,0.516v0.31h0.47c0.218,0,0.275,0.149,0.275,0.31c0,0.424-0.837,3.396-0.837,4.383l0.929-0.08
			c0.023-0.643,0.138-1.159,0.275-1.813l0.126-0.585c0.173-0.826,1.091-2.168,2.089-2.168c0.413,0,0.505,0.264,0.505,0.516
			c0,0.688-0.666,3.029-0.666,3.615c0,0.31,0.184,0.574,0.608,0.574c0.666,0,1.319-0.677,1.319-0.677l-0.045-0.333
			C122.324,49.158,121.899,49.525,121.612,49.525z"/>
		<path fill="#555555" d="M127.534,44.866c-0.437,0-0.826-0.138-1.354-0.138c-2.088,0-3.293,2.284-3.293,3.89
			c0,1.056,0.517,1.549,1.159,1.549c1.113,0,2.02-1.515,2.02-1.515h0.022c-0.229,0.884-0.16,1.836-0.424,2.547
			c-0.219,0.597-0.666,1.159-1.435,1.159c-0.573,0-0.792-0.413-0.792-0.86c0-0.252,0.069-0.539,0.172-0.757h-0.32
			c-0.448,0.459-0.643,0.7-0.643,1.044c0,0.551,0.527,0.964,1.525,0.964c2.65,0,2.697-2.938,2.812-3.913
			c0.138-1.17,0.654-3.293,0.906-3.97l-0.022-0.035C127.752,44.855,127.648,44.866,127.534,44.866z M126.433,46.978
			c-0.241,1.079-1.171,2.501-1.997,2.501c-0.31,0-0.539-0.195-0.539-0.964c0-1.71,1.137-3.408,2.191-3.408
			c0.402,0,0.712,0.241,0.712,0.241L126.433,46.978z"/>
		<path fill="#555555" d="M133.727,49.605h-1.79c0,0,0.104-0.31,0.184-0.654l1.033-5.187c0.184-0.953,0.631-1.388,0.631-1.388
			l-0.046-0.046c0,0-0.241,0.046-1.217,0.046h-0.918v0.287c0.77,0.172,0.758,0.287,0.632,0.837l-1.091,5.485
			c-0.092,0.413-0.401,0.654-0.895,0.711v0.367c0,0,0.986-0.034,1.526-0.034h3.511l0.758-2.1h-0.391
			C134.816,49.227,134.599,49.605,133.727,49.605z"/>
		<path fill="#555555" d="M138.443,42.319c-0.504,0-0.723,0.447-0.723,0.78c0,0.264,0.127,0.459,0.459,0.459
			c0.505,0,0.723-0.459,0.723-0.792C138.902,42.502,138.776,42.319,138.443,42.319z"/>
		<path fill="#555555" d="M137.824,49.525c-0.138,0-0.229-0.08-0.229-0.275c0-0.436,0.872-3.672,0.872-4.624l-0.034-0.035
			c-0.287,0.207-1.102,0.424-1.744,0.516v0.31h0.264c0.355,0,0.447,0.172,0.447,0.39c0,0.401-0.745,3.121-0.745,3.741
			c0,0.356,0.172,0.62,0.596,0.62c0.689,0,1.332-0.677,1.332-0.677l-0.047-0.333C138.535,49.158,138.111,49.525,137.824,49.525z"/>
		<path fill="#555555" d="M144.205,44.729l-1.434,0.321v0.287c1.273,0-0.77,2.88-1.572,3.787c-0.31-1.446-0.459-3.466-0.299-4.498
			l-0.034-0.035c-0.275,0.184-1.021,0.39-1.606,0.516v0.31h0.219c0.367,0,0.401,0.184,0.424,0.482
			c0.023,0.321,0.229,2.857,0.631,4.165l0.391,0.149c0,0,0.16-0.298,0.436-0.654c0.425-0.539,2.066-2.57,2.881-4.762L144.205,44.729
			z"/>
		<path fill="#555555" d="M145.092,47.689c0.77-0.161,2.938-0.746,2.938-2.077c0-0.677-0.585-0.883-1.113-0.883
			c-1.617,0-2.948,1.905-2.948,3.488c0,1.044,0.562,1.951,1.675,1.951c1.193,0,1.905-0.918,1.905-0.918l-0.023-0.31
			c0,0-0.653,0.505-1.308,0.505c-0.918,0-1.297-0.666-1.251-1.618L145.092,47.689z M146.688,45.13c0.355,0,0.436,0.321,0.436,0.619
			c0,1.102-1.641,1.503-2.077,1.595C145.275,46.243,146.01,45.13,146.688,45.13z"/>
		<path fill="#555555" d="M150.852,44.729c-1.044,0-1.962,0.562-1.962,1.606c0,1.412,1.721,1.469,1.721,2.582
			c0,0.551-0.413,0.872-0.849,0.872c-0.654,0-0.643-0.757-1.182-0.757c-0.275,0-0.448,0.218-0.448,0.459
			c0,0.516,0.815,0.677,1.331,0.677c0.998,0,1.951-0.562,1.951-1.629c0-1.458-1.744-1.515-1.744-2.582
			c0-0.528,0.379-0.85,0.803-0.85c0.597,0,0.551,0.631,1.045,0.631c0.298,0,0.447-0.229,0.447-0.448
			C151.965,44.797,151.207,44.729,150.852,44.729z"/>
		<path fill="#555555" d="M153.02,48.791c-0.539,0-0.791,0.482-0.791,0.884c0,0.264,0.138,0.493,0.493,0.493
			c0.551,0,0.804-0.505,0.804-0.895C153.525,49.008,153.376,48.791,153.02,48.791z"/>
	</g>
</g>
</svg>
