<?xml version="1.0" encoding="utf-8"?>
<!-- Generator: Adobe Illustrator 16.0.0, SVG Export Plug-In . SVG Version: 6.00 Build 0)  -->
<!DOCTYPE svg PUBLIC "-//W3C//DTD SVG 1.1//EN" "http://www.w3.org/Graphics/SVG/1.1/DTD/svg11.dtd">
<svg version="1.1" id="Layer_1" xmlns="http://www.w3.org/2000/svg" xmlns:xlink="http://www.w3.org/1999/xlink" x="0px" y="0px"
	 width="453px" height="178px" viewBox="105.5 30.5 453 178" enable-background="new 105.5 30.5 453 178" xml:space="preserve">
<path fill="#555555" d="M450.125,61.125c0,0-4.25-0.375-4.25,7.875l0.024,31c0,5.5,1.697,7.055,5.25,7.5
	c1.199,0.15-0.234,1.733-0.5,2c-0.25,0.25-7.5-0.75-15.5,0c-0.996,0.093-0.25-0.75-0.25-1.75s4.5-0.25,4.5-5.25l-0.024-32.375
	c0-9.25-7-8.5-7-8.5s-1-2.25,3-2.25c1.75,0,10.375,0.25,14.75,0c1.123-0.065,1.125,0.25,0.75,0.75S450.875,61,450.125,61.125z"/>
<path fill="#555555" d="M282.5,116l-16.438-44.5c-3.75-10-7.75-10.25-7.75-10.25s-0.75-1.75,3.25-1.75h16l-0.812,2.25
	c-2.5,0-5.25,2-3,8.75l10.25,29c0,0,7-17,9.5-24.75s1.5-10.75-2-12.5s-0.75-2.75-0.75-2.75h14.5v1.75c-3.75,0.5-6.189,9.772-7.75,14
	c-5.125,13.875-13,38.5-13.5,39.75C283.535,116.16,283.5,116.5,282.5,116z"/>
<path fill="#555555" d="M337.531,136.687c-0.656,2.25-2.906,2.313-6.281,2.313c-3.751,0-8.75,0.75-8.75,0.75v-15h13.75
	c0,0,5.75,0.25,7,5.25s4,1.5,2.75-1.75s-1.25-8.75-1.25-8.75l-3.625,0.375h-30c-4,0-2.5,2.5-2.5,2.5s6.5-0.25,6.5,8.25l0.023,31.625
	c0,5-4.027,4.868-4.5,5.75c-1.25,2.333-0.416,2,1.25,2c0,0,18.852-0.5,29.852,0c1.498,0.068,3.5,1.25,4.5-0.5
	c1.17-2.048,1.75-11,1.75-11s-0.4-4.035-2.75,0c-2.27,3.894-2.25,7.25-11,7.25s-11.5-0.5-11.75-3.5s0-18,0-18s1-1.5,4.25-1.5
	s5,0,5,0s4.52,0.347,5.5,5.25c0.25,1.25,2-0.5,2-0.5v-10C339.25,137.5,338.938,136.187,337.531,136.687"/>
<path fill="#555555" d="M426.125,109.125c-6.875,4-13.005,4.385-15.75,4.25c-7.625-0.375-15-3.125-22.875-15.125
	c-7.881-12.009-13.5-15.5-13.5-15.5c5,0,13.5-4.75,13.5-12.5c0-5.75-4.613-11.188-10.363-11.188
	c-3.25,0.25-17.135,0.163-23.637-0.312c-2.506-0.184-3.613,0.062-3.613,2.062c0,0,7.25,0.5,6.5,8.75l0.024,32.875
	c0,5-4.75,4.25-4.75,5.25s-1,1.5,0,1.5l16.089,0.063c0,0,2.664-1.536-1.25-2.5c-3.848-0.948-3.488-4.313-3.488-3.813
	c0-2.365,0-19.25,0-19.25s3.314-1.155,5.75,2c0,0,5.988,6.313,10.488,13.313s13.75,18.75,28,18.75
	c11.75,0,19.625-6.625,20.125-7.125S430.5,106.579,426.125,109.125z M363.012,78.937v-15.5l9.75-0.5c4.5,1,6.988,5.313,6.988,8.063
	s-1.707,6.125-1.707,6.125c-1.406,1.75-4.656,2.312-7.031,2.562C367.282,80.08,363.012,78.937,363.012,78.937z"/>
<path fill="#555555" d="M429.5,58.5c0,0-1.25,0.75-3.5,0.5s-7.252-1.093-10.5-1c-8.75,0.25-16.75,7-16.75,14s5.5,11.5,13.5,13.25
	S424.75,89,424.75,96c0,6-6.5,8.5-11.25,8.5s-10.808-3.712-13.5-7.75c-2-3-1.5-5.75-1.5-5.75l-2.625,1c0,0,0.875,6.25,0.125,9.25
	c-0.559,2.236,6,8.25,16,8.25c12.25,0,20.25-5.75,20.25-17.75c0-10-12.25-12.25-15.75-13s-10.5-3.25-10.5-9s6-7,10.25-7
	s7.5,1.75,9.25,4.25s1.75,4.75,1.75,4.75L429.5,71c0,0-0.75-5.25-0.75-7C428.75,62,429.5,58.75,429.5,58.5z"/>
<path fill="#555555" d="M457.25,60c0,0,27.5,0,29,0s4-1.5,5-0.5c0,0,0.5,0.5,0.5,2.5c0,3,0,7.5,0,9.25c0,1-1.981,2.2-2.25,0.5
	c-1.036-6.538-2.25-7.25-7-7.25c-2.75,0-6-1-6,2.25s0,34.25,0,36.5c0,3.5,3.835,3.792,5.25,4.5c0.5,0.25-0.5,1.75-0.5,1.75H463.5
	c0,0-0.75-2,0.75-2.25s4.75-3,4.75-5.25s0-37,0-35s0.5-2.5-2.5-2.5c-6,0-9.716-1.209-11,6.5c-0.25,1.5-2.5,3.25-2.5,0
	c0-1.25,0.175-7.741,0-9.5C452.75,59,454,58.75,457.25,60z"/>
<path fill="#555555" d="M157.625,143.375c-2,2.5-4,5.75-4.5,8.75c-1.717,10.301,4.694,10.761,8.5,10c5-1,11.5-7.75,12.75-15.5
	C176.351,134.371,164.265,135.074,157.625,143.375z M167.625,152.875c-2.5,3.25-4,5.5-8,5s-2.842-6.878,1-12c3-4,7.25-5.25,8.5-2.75
	C170.875,146.625,170.125,149.625,167.625,152.875z"/>
<path fill="#555555" d="M204.5,120l2.25-0.25v9c-3,0-3.25-2.5-3-4.25s-6.758,1.298-12,6.25c-4.5,4.25-6,9-6,9c0,0.25,6.5,0.5,7.25-2
	c0.072-0.241,1.25,0.5,1.25,0.5V147c0,0-1.427,1.793-2,1.5c-0.583-0.299,1.75-5.75-4.5-5.5c-2.998,0.119-3.25-0.25-3.25,0
	s-2.765,11.502-10,19.5c-7.125,7.875-17.5,10.25-23.5,5.25v-2.5c0,0,3.993,1.866,7.5,1.75c4.266-0.142,10.642-2.11,15-10
	c4.625-8.375,5.75-13.25,5.75-14c0-0.5-1.625-0.25-1.625-0.25L176.75,140h3.875c0,0,1.5-6.25,8.125-11.75
	C193.256,124.508,198,121.25,204.5,120z"/>
<path fill="#555555" d="M253,119.5l-0.5,18l-2.25,0.75c0,0-2-11.25-9.25-12s-16-1-20.5,4.25s-7.75,13.75-7.75,23
	c0,13.5,2.499,27,21,27c11,0,10.75-8.5,10.75-7c0,0,0-11.5,0-13.25s-4.25-3.75-7.5-3.75l0.75-2.75h22.5L260,156
	c0,0-5.5,1.25-5.5,4.5s0,18.25,0,18.25s-11.039,4.068-14,6c-5.75,3.75-5.5,3.75-11.75,3.75c-5,0-20-3.5-24-16.5
	s-3.433-28.69,6-41.75c6.5-9,15.25-11.25,24.25-11.25c5,0,9.75,1.25,11.25,1.25s4.25-1.25,5-1.5S253,119.5,253,119.5z"/>
<path fill="#555555" d="M260,120h16.5l-0.25,2.5c0,0-4.5,1-4.5,4.25s0,27.75,0,29.25c0,5.75,6.5,9.75,11,9.75s14-3.25,14-12.25
	s0-26.75,0-27c0-1.75-2-4.25-6.75-4.25c-1.25,0,2-2.5,2-2.5h13.5l-0.5,2.5c0,0-3.5,1.25-3.5,4.5c0,3.616-0.25,22.584-0.25,24.75
	c0,10.75-9,19.5-18.5,19.5C271,171,264,165.75,264,156.5c0,0,0-29.5,0-31.25s-4.75-3-4.75-3C257.25,122.5,260,120,260,120z"/>
<path fill="#555555" d="M350.75,120.25h17.5l-0.75,2c0,0-5-0.75-5,6.25c0,4.5,0,32.25,0,33.75s-1.25,2,3,3.25
	c1.918,0.564,11.173,0.334,13.75-0.75c4.75-2,6-7.75,6-7.75l1.5-0.25c0,0-0.5,10.75-1.25,12.25s-2.297,1.046-6,0.75
	c-6.25-0.5-28.75,0.25-28.75,0.25l-0.5-1.5c0,0,4.75-0.25,4.75-10.5c0-8.75,0-28.75,0-31.25c0-5.25-3.618-3.495-5.5-4.75
	C348.75,121.5,350.75,120.25,350.75,120.25z"/>
<path fill="#555555" d="M426,132c-0.25-2.75-1.75-7.25-5-9.25c-4.607-2.835-10.25-3.25-16.75-2.25c-3.985,0.613-15,0.5-15,0.5
	l-0.75,2.25c3.5,0,4.75,2.5,4.75,4c0,2.75,0.25,33.75,0,36.75s-2.5,3.5-3.75,4s-0.5,1.75-0.5,1.75h17.25c0,0,1.25-2,1-2
	c-4,0-6.5-2.75-6.5-4.5s0-12.25,0-13.5s-0.244-3.381,1-3.25c9.5,1,13.5,0.5,18-2.75C422.672,141.639,426.52,137.726,426,132z
	 M409.75,143.75c-8.998,0.304-8.75-2.5-8.75-2.5V125c0,0,7.75-0.75,10.75,0s6.5,4.25,6.5,8.25S415.502,143.555,409.75,143.75z"/>
<path fill="#555555" d="M472.735,170.065l0.016-1.749c-1.031-0.009-4.47-0.284-4.456-5.784c0.007-2.751,0.018-34.573,0.038-37.002
	c0.022-2.804,5.029-3.708,5.029-3.708l0.266-1.51l-16.997-0.117l-0.271,2c0,0,4.641,0.43,4.641,3.43c0,10.688,0,14.625,0,14.625
	h-21.75c-1.25,0-0.75-0.75-0.75-2s0-9.25,0-12.25s3.5-3.25,3.5-3.25l0.75-2.5H427l-0.5,2c0,0,4.75-0.5,5,3.25c0.182,2.743,0,35,0,37
	c0,1.75-1.47,5.5-4.5,5.75l-0.25,1.75c0,0,13.5,0,15.5,0c0.25,0,2.25-1.75-0.5-2.5c-2.061-0.562-3.5-2-3.5-5.25s0-16.5,0-17.5
	s0.25-0.75,1.5-0.75s21,0,21,0s0,16.25,0,18.5c0,5-2.44,4.837-3.5,5.5c-1.5,0.938-1.364,1.785,0,2
	C458.438,170.188,472.735,170.065,472.735,170.065z"/>
<path fill="#555555" d="M173.771,70.937c0-6.875-3.236-9.406-10.375-10c-1.793-0.149,1-2.125,1-2.125c9.604-0.145,21.375,0,21.375,0
	c1,0.25,0.875,0.5,0.125,1.875c-0.599,1.097-6.125-1.125-6.125,9.875l-0.021,0.188v34.5c0,7.5-5.25,12.75-5.25,12.75
	c-3.25,4.25-9.5,8.5-20,8.5c-25,0-24.25-19-24.25-19V72c0-6.875-0.236-10.281-7.375-10.875c-1.793-0.15,1-2.125,1-2.125
	c9.25,0.75,21.875,0,21.875,0c1,0.25,0.875,0.5,0.125,1.875C145.276,61.972,139.75,60,139.75,71v31.25c0,11,7,17.5,17,17.5
	s17-5.5,17-14.5V71L173.771,70.937z"/>
<path fill="#555555" d="M230.684,71.387c-0.134-10.999,4.294-8.833,4.879-9.937c0.734-1.384,0.856-1.636-0.147-1.874
	c0,0-4.992,0.753-14.251,0.116c0,0-2.768,2.009-0.974,2.137c7.147,0.507,6.663,3.085,6.747,9.96l-0.063,24.961
	C225.75,97.375,202.5,62.625,202.5,62.625l-2.229-3.25c0,0-1.25,0.5-10.5-0.25c0,0-2.793,1.975-1,2.125
	c7.139,0.594,6.5,3.125,6.5,10l-0.021,7.125l0.041,19.479c-0.12,11-5.122,8.717-5.733,9.808c-0.765,1.366-0.893,1.615,0.105,1.876
	c0,0,5.882-0.617,15.124,0.235c0,0,2.814-1.946,1.023-2.114c-7.133-0.673-6.59-3.239-6.515-10.114L199.25,72.5
	c0,0,23.937,30.249,26.5,39c0,0,0.625,2.187,2,0.625c1.019-1.159,1.324-0.901,2.062-1.375c0.875-0.563,0.875-0.938,0.938-2
	L230.684,71.387z"/>
<path fill="#555555" d="M323.75,83c1.25-0.75,6.25-1.25,9.25-1.5s5,3.5,5.25,5.5s2.193,0.509,2-0.75c-0.5-3.25,0-7.75,0-10.25
	c0-1.75-1.5-1.25-2-0.5c-1,1.5-2.25,2.5-5,3s-9.5,1-9.5,1l-0.25-0.75v-15h13.75c0,0,5.962,0.33,7.5,5.25c1.25,4,2.75,1,2.25-1.75
	c-0.623-3.426-1.25-8.75-1.25-8.75l-3.625,0.375h-30c-2.25,0-2.5,2.25-2.5,2.25s6.5-0.25,6.5,8.25l0.023,31.875
	c0,5-5.25,4.5-5.25,5.5s1,2.25,2,2.25c0,0,28.352,0,29.852,0s4.25,1.5,4.5-0.5c0.292-2.341,1.75-11,1.75-11s0.043-2.57-2.25,0
	c-1.004,1.124-1.5,7-11.5,7.25c-8.748,0.218-11.5-0.5-11.75-3.5s0-18,0-18L323.75,83z"/>
<path fill="#555555" d="M524.5,109.75c2.375,0,1.625-0.25,2.375-1.125s0-1.25-1.375-1.125s-3.625-0.625-3.75-4.375
	s0-14.375,0-14.375c0.75-1.25,7.5-13,10.25-18.25l1.494-2.578c1.461-2.523,1.91-4.881,4.625-5.25c0.754-0.103,0.723-0.324,2-0.75
	c0.75-0.25,1.5-2,0.5-2c-1.879,0-14,0-15.125,0c-0.5,0-2.739,0.693-0.875,1.625c0.5,0.25,2.321-0.152,3.75,1
	c0.653,0.526,2.006,3.078,0.881,5.203l-10,16.25c0,0-8-14.25-9.5-16.75s-1.216-4.381,1.5-4.75c0.753-0.103,0.722-0.325,2-0.75
	c0.75-0.25,1.5-2,0.5-2c-1.88,0-16.25,0-17.375,0c-0.5,0-2.74,0.692-0.875,1.625c0.5,0.25,3,1,3.625,2S512.375,86.875,514,90.5
	c0.686,1.53,0.586,10.001,0.5,12.5c-0.125,3.625-1.209,4-2.875,4.5c-1.198,0.359-1.75,0.875-1.875,1.625s0.253,0.618,3.125,0.625
	C517.631,109.761,524.5,109.75,524.5,109.75z"/>
<path fill="#555555" d="M539.75,53.5c-4.5,0-418.5,0-418.5,0l2-2c0,0,414,0,418.5,0L539.75,53.5z"/>
<path fill="#555555" d="M251.25,69.125c0-8.25,4.125-7.375,4.125-7.375c0.75-0.125,0.5-0.875,0.875-1.375s0.373-0.807-0.75-0.75
	c-2.5,0.125-12.125,0-13.875,0l-1.238-0.063c-4,0-2.625,2.25-2.625,2.25s7-0.75,7,8.5l0.024,32.375c0,5-4.5,4.25-4.5,5.25
	s-0.746,1.843,0.25,1.75c8-0.75,15.25,0.25,15.5,0c0.266-0.267,1.701-1.85,0.5-2c-3.552-0.444-5.25-2-5.25-7.5L251.25,69.125z"/>
<path fill="#555555" d="M472,177.5c-8.382,0-212,0-212,0l2-2c0,0,207.5,0,212,0L472,177.5z"/>
</svg>
