<?xml version="1.0" encoding="utf-8"?>
<!-- Generator: Adobe Illustrator 16.0.0, SVG Export Plug-In . SVG Version: 6.00 Build 0)  -->
<!DOCTYPE svg PUBLIC "-//W3C//DTD SVG 1.1//EN" "http://www.w3.org/Graphics/SVG/1.1/DTD/svg11.dtd">
<svg version="1.1" id="Layer_1" xmlns="http://www.w3.org/2000/svg" xmlns:xlink="http://www.w3.org/1999/xlink" x="0px" y="0px"
	 width="100px" height="94.601px" viewBox="0 0 100 94.601" enable-background="new 0 0 100 94.601" xml:space="preserve">
<path fill="#FFFFFF" d="M50.07,19.173L17.234,48.249v41.547c0,1.073,0.867,1.935,1.94,1.935h20.521V73.513
	c0-1.073,0.861-1.939,1.934-1.939h16.863c1.072,0,1.934,0.866,1.934,1.939V91.73h20.527c1.074,0,1.934-0.861,1.934-1.935v-41.56
	L50.07,19.173z M59.566,59.73H41.224V48.443h18.342V59.73z"/>
<path id="rect2404" fill="#FFFFFF" d="M17.234,9.204H29.04l-0.103,6.992L17.234,26.768L17.234,9.204L17.234,9.204z"/>
<path id="path2399" fill="#FFFFFF" d="M49.879,5.334L3.309,46.57l4.905,5.535L50.07,15.041l41.846,37.064l4.896-5.535L50.251,5.334
	l-0.19-0.164L49.879,5.334z"/>
</svg>
