<?xml version="1.0" encoding="utf-8"?>
<!-- Generator: Adobe Illustrator 16.0.0, SVG Export Plug-In . SVG Version: 6.00 Build 0)  -->
<!DOCTYPE svg PUBLIC "-//W3C//DTD SVG 1.1//EN" "http://www.w3.org/Graphics/SVG/1.1/DTD/svg11.dtd">
<svg version="1.1" id="Layer_1" xmlns="http://www.w3.org/2000/svg" xmlns:xlink="http://www.w3.org/1999/xlink" x="0px" y="0px"
	 width="86px" height="85.833px" viewBox="0 0 86 85.833" enable-background="new 0 0 86 85.833" xml:space="preserve">
<g>
	<path fill="#FFFFFF" d="M34.495,31.682c-0.613,4.097-0.941,8.269-0.984,12.462c0.581,0.122,1.133,0.322,1.65,0.58
		c5.278-4.07,11.037-7.079,17.103-8.923c0.057-0.355,0.137-0.703,0.246-1.038c-4.252-2.829-8.773-4.972-13.482-6.331
		C38.053,30.073,36.424,31.281,34.495,31.682z"/>
	<path fill="#FFFFFF" d="M37.251,19.401c1.573,1.192,2.617,3.039,2.729,5.137c5.192,1.478,10.176,3.816,14.84,6.933
		c1.175-0.922,2.652-1.477,4.262-1.477c2.654,0,4.957,1.498,6.117,3.693c0.46-0.013,0.921-0.025,1.383-0.025
		c1.079,0,2.163,0.043,3.243,0.115c-3.327-12.248-14.542-21.282-27.83-21.282c-0.797,0-1.584,0.041-2.366,0.105
		C38.743,14.813,37.951,17.085,37.251,19.401z"/>
	<path fill="#FFFFFF" d="M65.955,37.673c-0.102,0.915-0.378,1.776-0.799,2.547c1.828,1.926,3.562,4.014,5.214,6.225
		c0.3-1.662,0.465-3.371,0.465-5.12c0-1.171-0.078-2.324-0.215-3.459c-1.343-0.122-2.692-0.204-4.038-0.204
		C66.372,37.662,66.164,37.67,65.955,37.673z"/>
	<path fill="#FFFFFF" d="M26.546,22.663c0.934-2.715,3.504-4.669,6.536-4.669c0.138,0,0.273,0.013,0.41,0.021
		c0.481-1.578,1.004-3.137,1.569-4.671c-6.171,1.529-11.562,5.049-15.451,9.838C21.908,22.849,24.226,22.665,26.546,22.663z"/>
	<path fill="#FFFFFF" d="M62.28,43.039c-0.957,0.5-2.044,0.789-3.198,0.789c-2.777,0-5.166-1.642-6.268-4.003
		c-5.186,1.659-10.131,4.25-14.708,7.694c0.566,1.003,0.893,2.159,0.893,3.394c0,3.022-1.945,5.588-4.649,6.526
		c0.573,4.181,1.448,8.277,2.601,12.274c1.639,0.291,3.323,0.451,5.044,0.451c12.349,0,22.907-7.807,27.01-18.739
		C66.93,48.373,64.682,45.572,62.28,43.039z"/>
	<path fill="#FFFFFF" d="M25.756,53.701c-0.378-0.853-0.591-1.797-0.591-2.789c0-2.91,1.798-5.396,4.341-6.416
		c0.027-4.43,0.364-8.837,1.001-13.168c-2.012-0.808-3.55-2.533-4.108-4.659c-3.318,0.014-6.628,0.418-9.873,1.166
		c-2.142,4.027-3.361,8.619-3.361,13.491c0,7.395,2.799,14.146,7.39,19.256C22.188,58.137,23.924,55.84,25.756,53.701z"/>
	<path fill="#FFFFFF" d="M28.41,56.765c-1.737,2.064-3.381,4.284-4.927,6.646c2.639,2.217,5.679,3.967,8.995,5.131
		c-0.928-3.582-1.647-7.233-2.141-10.945C29.646,57.416,28.998,57.135,28.41,56.765z"/>
</g>
</svg>
