<?xml version="1.0" encoding="utf-8"?>
<!-- Generator: Adobe Illustrator 16.0.0, SVG Export Plug-In . SVG Version: 6.00 Build 0)  -->
<!DOCTYPE svg PUBLIC "-//W3C//DTD SVG 1.1//EN" "http://www.w3.org/Graphics/SVG/1.1/DTD/svg11.dtd">
<svg version="1.1" id="Ebene_1" xmlns="http://www.w3.org/2000/svg" xmlns:xlink="http://www.w3.org/1999/xlink" x="0px" y="0px"
	 width="100px" height="100px" viewBox="0 0 100 100" enable-background="new 0 0 100 100" xml:space="preserve">
<g>
	<path fill="#FFFFFF" d="M6.773,84.438V100h86.454V84.438H6.773z M63.832,95.678c-1.909,0-3.458-1.548-3.458-3.459
		c0-1.91,1.549-3.458,3.458-3.458c1.91,0,3.459,1.548,3.459,3.458C67.291,94.13,65.742,95.678,63.832,95.678z M74.207,95.678
		c-1.91,0-3.458-1.548-3.458-3.459c0-1.91,1.548-3.458,3.458-3.458c1.909,0,3.458,1.548,3.458,3.458
		C77.665,94.13,76.116,95.678,74.207,95.678z M84.581,95.678c-1.909,0-3.458-1.548-3.458-3.459c0-1.91,1.549-3.458,3.458-3.458
		c1.91,0,3.458,1.548,3.458,3.458C88.039,94.13,86.491,95.678,84.581,95.678z"/>
	<path fill="#FFFFFF" d="M41.929,59.943c-1.768,0-3.207-1.438-3.207-3.205V27.322h-8.651c-1.26,0-2.319-0.66-2.836-1.761
		c-0.554-1.182-0.36-2.607,0.496-3.632L47.658,1.104C48.249,0.392,49.042,0,49.892,0c0.035,0,0.181,0,0.216,0
		c0.847,0,1.64,0.392,2.233,1.103l19.063,20.828c0.854,1.023,1.05,2.448,0.496,3.63c-0.519,1.102-1.576,1.761-2.836,1.761h-7.787
		v29.417c0,1.768-1.438,3.204-3.207,3.204H41.929L41.929,59.943z"/>
	<path fill="#FFFFFF" d="M79.395,33.431H67.768v25.277c0,3.467-2.822,6.289-6.289,6.289H38.522c-3.467,0-6.289-2.822-6.289-6.289
		V33.431H20.606L6.773,80.98h86.454L79.395,33.431z"/>
</g>
</svg>
